<svg width="101" height="101" viewBox="0 0 101 101" fill="none" xmlns="http://www.w3.org/2000/svg">
<path d="M7.80859 74.0001H17.9066V61.7901L24.9026 54.2661H25.0346L38.6966 74.0001H50.9726L31.6346 47.6001L50.7746 27.8001H36.9806L18.0386 48.1281H17.9066V27.8001H7.80859V74.0001Z" fill="#E5FFC3"/>
<path d="M74.9156 74.9901C86.0036 74.9901 93.8576 67.3341 93.8576 56.5101C93.8576 45.9501 85.8716 38.0301 75.1796 38.0301C70.5596 38.0301 66.5336 39.3501 63.8276 41.7921H63.6956V25.8201H53.9276V74.0001H62.9696V70.5681H63.1016C65.7416 73.4721 69.8336 74.9901 74.9156 74.9901ZM73.6616 66.3441C68.1176 66.3441 63.6956 62.9121 63.6956 58.6221V54.2001C63.6956 50.0421 68.2496 46.6101 73.6616 46.6101C79.8656 46.6101 84.0896 50.6361 84.0896 56.5101C84.0896 62.4501 79.9976 66.3441 73.6616 66.3441Z" fill="#E5FFC3"/>
</svg>
